<svg width="358" height="432" viewBox="0 0 358 432" fill="none" xmlns="http://www.w3.org/2000/svg">
<g clip-path="url(#clip0_10_1662)">
<path d="M325.872 383.065C325.77 383.065 325.668 383.064 325.566 383.063L55.4791 379.907C40.128 379.708 27.7635 367.075 27.8714 351.723C8.80381 288.415 0.402406 238.562 0.632145 190.093C0.871997 139.504 10.8582 88.043 32.0576 28.1538C32.3039 12.9047 44.7963 0.626129 60.0155 0.626129C60.114 0.626129 60.2124 0.626745 60.3109 0.627663L330.398 3.79033C345.784 3.98895 358.165 16.6755 357.998 32.0707V32.0713L357.452 78.9609L357.046 78.9655L353.821 355.438C353.624 370.735 341.115 383.065 325.872 383.065ZM60.0152 1.88358C45.446 1.88358 33.4949 13.6633 33.3124 28.2744L33.3111 28.3785L33.2762 28.4764C-7.20735 142.796 -8.29989 227.313 29.102 351.451L29.1296 351.543L29.1287 351.64C28.9756 366.343 40.8031 378.46 55.4945 378.649L325.58 381.806C325.677 381.807 325.775 381.808 325.873 381.808C340.43 381.808 352.376 370.032 352.565 355.423L355.542 100.261L355.555 99.0043L355.9 69.8284L356.301 69.825L356.742 32.0566C356.902 17.354 345.076 5.23749 330.383 5.04776L60.2971 1.88512C60.2039 1.8842 60.1082 1.88358 60.0152 1.88358Z" fill="#F2F2F2"/>
<path d="M301.878 269.773L301.859 271.03H147.582V269.773H301.878Z" fill="#F2F2F2"/>
<path d="M302.186 243.052L302.173 244.309H147.582V243.052H302.186Z" fill="#F2F2F2"/>
<path d="M302.5 216.331L302.487 217.589H147.582V216.331H302.5Z" fill="#F2F2F2"/>
<path d="M301.533 298.946L301.52 300.203H144.14V168.234L145.396 168.246V247.22C145.396 255.306 147.249 262.957 150.553 269.773C150.76 270.194 150.968 270.615 151.188 271.03C159.793 287.616 177.118 298.946 197.081 298.946H301.533Z" fill="#F2F2F2"/>
<path d="M83.2836 364.553C68.2127 364.36 56.1423 351.993 56.3013 336.908C20.4078 217.779 18.1599 133.062 60.4811 13.5422C60.5657 8.78569 61.9042 4.13619 64.3608 0.0639666L59.046 0.00155292C43.9748 -0.157515 31.6187 11.9236 31.4249 27.0078C-10.8963 146.527 -8.6484 231.244 27.2451 350.373C27.0858 365.458 39.1565 377.825 54.2275 378.019L324.314 381.179C334.08 381.26 343.14 376.098 348.056 367.651L83.2836 364.553Z" fill="#F2F2F2"/>
<path d="M123.47 222.091C123.901 224.797 121.697 227.32 118.959 227.242L109.875 247.734L103.594 246.613L114.562 222.353C114.741 220.333 116.274 218.621 118.367 218.309C120.82 217.943 123.104 219.636 123.47 222.091Z" fill="#FFB6B6"/>
<path d="M74.3053 285.048L74.3053 285.048C76.8977 287.732 81.0973 288.02 84.0319 285.716L105.525 268.842L116.174 235.697L108.431 232.113L93.8857 261.149L75.3884 273.998C71.7008 276.559 71.1853 281.818 74.3053 285.048V285.048Z" fill="#FF9800"/>
<path d="M78.9801 273.539C78.421 273.155 77.8242 272.816 77.2086 272.527C77.2212 272.363 77.2274 272.193 77.2274 272.03C77.2589 270.376 76.9322 268.723 76.2664 267.208C76.3543 268.54 75.946 269.899 75.142 270.961C75.0038 271.15 74.853 271.326 74.6897 271.495C74.6457 271.54 74.6017 271.584 74.5577 271.621C73.6721 271.42 72.7549 271.326 71.8441 271.338C70.8327 271.357 69.8277 271.495 68.8289 271.69C67.5788 271.929 66.3351 272.263 65.0913 272.539C65.0159 272.558 64.9468 272.571 64.8714 272.589C64.2998 271.037 63.4016 269.616 62.2331 268.446C62.7922 269.653 62.9053 271.068 62.541 272.351C62.4781 272.577 62.4028 272.797 62.3085 273.011C60.9517 273.149 59.5949 273.111 58.2946 272.734C57.7418 272.577 57.2204 272.363 56.7116 272.112C54.915 271.231 53.2944 269.924 51.4413 269.138C50.4425 268.71 49.3872 268.446 48.3067 268.339C47.4022 263.152 47.6535 258.55 50.4299 255.224C50.4299 247.635 56.5797 241.48 64.1616 241.48L70.4558 243.668L76.8129 245.881C79.8029 253.866 84.5582 260.895 78.9801 273.539Z" fill="#2F2E41"/>
<path d="M89.1135 417.294L93.419 419.338L103.519 403.319L97.1647 400.302L89.1135 417.294Z" fill="#FFB6B6"/>
<path d="M99.4647 428.803L94.8672 420.831L96.3284 417.748L94.8079 417.132L90.0903 415.233L88.935 414.764L82.8671 425.225L86.0981 426.756L88.1198 423.979L88.1462 427.731L96.7063 431.795C97.7702 432.299 99.042 431.842 99.5442 430.781C99.8439 430.149 99.8143 429.41 99.4647 428.803Z" fill="#2F2E41"/>
<path d="M152.697 356.282L156.131 352.975L144.74 337.848L139.671 342.728L152.697 356.282Z" fill="#FFB6B6"/>
<path d="M167.115 350.668L158.039 352.149L155.675 349.689L154.562 350.894L151.116 354.637L150.27 355.553L157.895 364.937L160.47 362.455L158.59 359.579L162.105 360.883L168.934 354.31C169.782 353.493 169.805 352.14 168.992 351.295C168.507 350.79 167.806 350.556 167.115 350.668Z" fill="#2F2E41"/>
<path d="M79.9537 328.873L62.9932 325.101L63.107 330.265C63.107 330.265 45.4046 343.962 61.7369 357.166C78.0692 370.369 105.708 371.626 105.708 371.626L93.1451 408.093L99.4268 410.607L124.159 376.802C127.49 370.741 126.548 363.104 121.587 358.289C120.627 357.358 119.528 356.537 118.272 355.908C110.734 352.136 90.6325 344.591 90.6325 344.591L80.5818 334.532L79.9537 328.873Z" fill="#2F2E41"/>
<path d="M79.3254 338.304L114.161 316.116C118.07 313.626 123.161 314.068 126.584 317.193L152.821 345.849L145.911 351.507L118.9 332.645C118.9 332.645 103.196 350.25 98.7986 350.25C94.4014 350.25 79.3254 338.304 79.3254 338.304H79.3254Z" fill="#2F2E41"/>
<path d="M60.4805 340.096C60.4805 340.096 49.7816 334.027 54.817 328.888C59.8523 323.749 60.4805 307.501 60.4805 307.501L52.3143 282.882L58.596 278.481L60.4805 271.03L71.7875 270.402V275.966L83.1141 288.517C86.9632 292.783 88.1258 298.835 86.1314 304.225L83.0944 312.432C83.0944 312.432 91.8887 335.695 84.3508 338.839C76.8128 341.982 60.4805 340.096 60.4805 340.096Z" fill="#FF9800"/>
<path d="M117.064 250.045L87.3533 223.508C82.8656 219.525 82.4536 212.655 86.433 208.163C90.4123 203.671 97.2765 203.259 101.764 207.242L101.815 207.288L131.526 233.825C135.988 237.836 136.357 244.709 132.349 249.175C128.359 253.622 121.531 254.01 117.064 250.045H117.064Z" fill="#F2F2F2"/>
<path d="M68.8 268.319C75.0375 268.319 80.094 263.258 80.094 257.015C80.094 250.772 75.0375 245.711 68.8 245.711C62.5626 245.711 57.5061 250.772 57.5061 257.015C57.5061 263.258 62.5626 268.319 68.8 268.319Z" fill="#FFB6B6"/>
<path d="M74.6833 254.683C74.6017 253.369 74.2813 252.068 73.7536 250.861C73.8416 252.194 73.4333 253.552 72.6292 254.614C72.6104 254.639 72.5916 254.658 72.579 254.683C70.5029 255.692 67.0025 255.122 63.6213 254.683V242.109H70.5312C77.3153 239.82 82.8997 244.8 83.0945 254.683C79.8396 255.273 76.7889 255.597 74.6833 254.683Z" fill="#2F2E41"/>
<path d="M68.8288 271.69C67.5788 271.929 66.335 272.263 65.0913 272.539C65.0159 272.558 64.9468 272.571 64.8714 272.589C64.2998 271.037 63.4015 269.616 62.2331 268.446C62.7922 269.653 62.9053 271.068 62.5409 272.351C62.4781 272.577 62.4027 272.797 62.3085 273.011C60.9517 273.149 59.5948 273.111 58.2945 272.734C57.7418 272.577 57.2204 272.363 56.7115 272.112V245.252H69.903C64.7835 253.979 64.0548 262.781 68.8288 271.69Z" fill="#2F2E41"/>
<path d="M66.3363 240.256C66.0952 239.5 65.1761 239.14 64.3931 239.262C63.6101 239.384 62.9357 239.862 62.2935 240.326C62.9189 239.645 62.6007 238.443 61.8352 237.924C61.0697 237.406 60.0464 237.441 59.1628 237.713C58.2791 237.985 57.4743 238.465 56.6113 238.797C55.7482 239.128 54.7642 239.304 53.9094 238.952C54.2421 239.999 54.8855 240.946 55.7369 241.641C54.7298 241.464 53.6384 241.987 53.1436 242.882C52.6487 243.778 52.7865 244.981 53.4709 245.741C54.2565 246.614 55.5854 246.818 56.7266 246.544C57.8677 246.27 58.8666 245.597 59.8287 244.924C60.7908 244.252 61.7677 243.556 62.8937 243.225L59.1929 245.554C61.0829 244.766 62.9167 243.843 64.6756 242.794C65.1458 242.513 65.6203 242.215 65.964 241.789C66.3077 241.362 66.5028 240.778 66.3363 240.256Z" fill="#2F2E41"/>
<path d="M48.8957 353.2C48.8104 350.408 51.3071 348.428 53.8595 347.916C57.1027 347.265 60.4133 348.939 63.1612 350.46C68.0718 353.178 73.769 350.483 79.0159 353.782C86.761 358.653 88.3608 351.357 87.8731 342.743C87.5133 336.39 89.0506 330.151 89.378 323.901C89.6933 317.883 91.3308 311.768 96.4286 308.029C98.5687 306.46 101.235 305.531 103.892 306.082C106.73 306.67 108.997 308.711 111.732 309.6C116.821 311.254 122.174 309.022 125.991 305.619C130.43 301.661 132.597 296.093 134.123 290.478C135.704 284.656 136.67 278.561 139.57 273.197C142.045 268.621 145.932 264.397 151.29 263.524C156.539 262.669 161.568 265.244 166.099 267.551C170.762 269.925 175.582 272.497 180.924 272.718C192.373 273.193 201.216 263.444 206.177 254.175C211.84 243.595 215.124 230.757 225.184 223.277C229.509 220.062 234.996 217.817 240.459 218.718C245.981 219.629 250.014 223.637 253.681 227.555C257.437 231.568 261.167 235.522 266.256 237.833C271.25 240.101 276.83 240.951 282.27 240.232C284.897 239.885 287.411 239.165 289.842 238.114C290.952 237.634 289.993 236.009 288.891 236.485C283.56 238.79 277.491 239.19 271.867 237.803C266.216 236.409 261.713 233.245 257.723 229.104C254.069 225.312 250.635 220.995 245.856 218.558C241.022 216.093 235.479 216.156 230.49 218.145C225.431 220.161 221.048 223.728 217.725 228.016C213.865 232.998 211.298 238.836 208.717 244.543C204.053 254.858 198.074 267.038 186.141 270.244C174.842 273.28 166.483 263.273 155.944 261.685C150.763 260.904 145.859 262.699 142.19 266.403C138.392 270.238 136.196 275.31 134.745 280.433C132.968 286.711 132.053 293.435 128.789 299.183C126.209 303.727 121.43 307.941 116 308.256C112.89 308.436 110.508 307 107.849 305.612C105.452 304.361 102.95 303.717 100.256 304.243C95.21 305.228 91.2898 309.691 89.363 314.241C84.6103 325.462 91.1551 339.883 81.8511 349.478C80.1506 351.232 77.9695 352.551 75.5067 352.819C72.2074 353.178 69.1224 351.641 66.3256 350.082C61.4947 347.388 55.3781 343.786 50.0832 347.525C48.2042 348.852 46.9395 350.854 47.0112 353.2C47.0482 354.411 48.9328 354.417 48.8957 353.2H48.8957Z" fill="#3F3D56"/>
<path d="M236.995 222.618C240.117 222.618 242.648 220.085 242.648 216.96C242.648 213.835 240.117 211.301 236.995 211.301C233.873 211.301 231.341 213.835 231.341 216.96C231.341 220.085 233.873 222.618 236.995 222.618Z" fill="#FF9800"/>
<path d="M184.229 276.06C187.351 276.06 189.883 273.527 189.883 270.402C189.883 267.276 187.351 264.743 184.229 264.743C181.107 264.743 178.576 267.276 178.576 270.402C178.576 273.527 181.107 276.06 184.229 276.06Z" fill="#FF9800"/>
<path d="M151.993 99.3298C155.46 92.1283 164.455 88.1176 172.123 90.3541C176.442 91.614 180.065 94.5087 184.037 96.6242C188.009 98.7397 192.936 100.053 196.931 97.9828C203.799 94.4236 203.38 83.7972 209.353 78.8808C213.329 75.6084 219.162 75.7614 224.076 77.2956C228.99 78.8297 233.484 81.5382 238.43 82.9659C247.633 85.6228 258.099 83.3885 265.418 77.204C265.491 77.1422 265.564 77.0799 265.635 77.0171C269.258 73.8219 274.937 76.4551 274.804 81.2869L273.877 114.983H152.641L151.993 99.3298Z" fill="#F2F2F2"/>
<path d="M258.393 93.2578C258.792 93.0955 258.792 92.5353 258.393 92.3731C255.605 91.2415 252.484 89.6305 250.099 87.8782C249.717 87.5976 249.207 87.9844 249.368 88.4303L250.726 92.1866H227.494V93.444H250.726L249.368 97.2017C249.207 97.6476 249.717 98.0343 250.099 97.7537C252.484 96.0013 255.605 94.3901 258.393 93.2578H258.393Z" fill="#3F3D56"/>
<path d="M206.126 87.2015C206.345 86.8303 206.006 86.3845 205.59 86.4975C202.688 87.2859 199.229 87.8953 196.27 87.9461C195.797 87.9543 195.625 88.5714 196.023 88.8286L199.375 90.9953L180.886 105.074L181.646 106.075L200.136 91.9961L201.328 95.8096C201.47 96.2621 202.11 96.2606 202.244 95.8059C203.083 92.9657 204.592 89.7918 206.125 87.2015L206.126 87.2015Z" fill="#3F3D56"/>
<path d="M269.7 85.4185C275.648 85.4185 280.469 80.5929 280.469 74.6403C280.469 68.6877 275.648 63.8622 269.7 63.8622C263.753 63.8622 258.932 68.6877 258.932 74.6403C258.932 80.5929 263.753 85.4185 269.7 85.4185Z" fill="#FF9800"/>
<path opacity="0.7" d="M216.934 85.4185C222.882 85.4185 227.703 80.5929 227.703 74.6403C227.703 68.6877 222.882 63.8622 216.934 63.8622C210.987 63.8622 206.166 68.6877 206.166 74.6403C206.166 80.5929 210.987 85.4185 216.934 85.4185Z" fill="#FF9800"/>
<path opacity="0.25" d="M169.194 95.4781C175.141 95.4781 179.962 90.6526 179.962 84.6999C179.962 78.7473 175.141 73.9218 169.194 73.9218C163.247 73.9218 158.425 78.7473 158.425 84.6999C158.425 90.6526 163.247 95.4781 169.194 95.4781Z" fill="#FF9800"/>
<path d="M299.828 136.481L132.74 135.282C127.369 135.244 122.972 139.582 122.934 144.957C122.895 150.333 127.23 154.734 132.6 154.772L299.688 155.971C305.059 156.009 309.456 151.671 309.494 146.296C309.533 140.92 305.198 136.519 299.828 136.481Z" fill="#F2F2F2"/>
<path d="M107.779 147.394C110.207 147.394 112.176 145.424 112.176 142.993C112.176 140.562 110.207 138.592 107.779 138.592C105.35 138.592 103.382 140.562 103.382 142.993C103.382 145.424 105.35 147.394 107.779 147.394Z" fill="#F2F2F2"/>
<path d="M299.828 28.34L132.74 27.1414C127.369 27.1029 122.972 31.4411 122.934 36.8166C122.895 42.1921 127.23 46.5929 132.6 46.6314L299.688 47.83C305.059 47.8686 309.456 43.5303 309.494 38.1549C309.533 32.7794 305.198 28.3786 299.828 28.34Z" fill="#F2F2F2"/>
<path d="M107.779 39.2531C110.207 39.2531 112.176 37.2827 112.176 34.852C112.176 32.4214 110.207 30.4509 107.779 30.4509C105.35 30.4509 103.382 32.4214 103.382 34.852C103.382 37.2827 105.35 39.2531 107.779 39.2531Z" fill="#F2F2F2"/>
<path d="M90.5277 387.077H63.162C60.8617 387.077 58.9904 385.203 58.9904 382.901V355.511C58.9904 353.209 60.8617 351.336 63.162 351.336H90.5277C92.828 351.336 94.6993 353.209 94.6993 355.511V382.901C94.6993 385.203 92.828 387.077 90.5277 387.077Z" fill="white"/>
<path d="M90.5277 387.077H63.162C60.8617 387.077 58.9904 385.203 58.9904 382.901V355.511C58.9904 353.209 60.8617 351.336 63.162 351.336H90.5277C92.828 351.336 94.6993 353.209 94.6993 355.511V382.901C94.6993 385.203 92.828 387.077 90.5277 387.077ZM63.162 352.004C61.2267 352.004 59.6578 353.574 59.6578 355.511V382.901C59.6578 384.838 61.2267 386.408 63.162 386.408H82.6647C88.9426 386.408 94.0319 381.315 94.0319 375.031V355.511C94.0319 353.574 92.463 352.004 90.5277 352.004H63.162Z" fill="#E6E6E6"/>
<path d="M291.309 359.308C292.606 359.389 293.324 357.775 292.342 356.835L292.244 356.446C292.257 356.415 292.27 356.384 292.283 356.353C293.595 353.22 298.043 353.242 299.344 356.379C300.499 359.163 301.97 361.952 302.332 364.896C302.494 366.195 302.421 367.519 302.133 368.794C304.839 362.877 306.263 356.416 306.263 349.919C306.263 348.287 306.174 346.654 305.992 345.026C305.841 343.694 305.634 342.37 305.367 341.058C303.918 333.968 300.782 327.215 296.258 321.574C294.084 320.384 292.27 318.525 291.174 316.295C290.781 315.491 290.473 314.626 290.327 313.745C290.574 313.777 291.26 310.005 291.073 309.773C291.418 309.25 292.035 308.989 292.412 308.478C294.285 305.936 296.866 306.38 298.214 309.834C301.092 311.288 301.12 313.7 299.354 316.019C298.23 317.495 298.076 319.491 297.09 321.071C297.191 321.201 297.297 321.327 297.398 321.457C299.258 323.844 300.867 326.411 302.223 329.107C301.84 326.111 302.406 322.5 303.371 320.173C304.469 317.522 306.527 315.289 308.34 312.996C310.517 310.243 314.981 311.445 315.365 314.935C315.369 314.969 315.372 315.003 315.376 315.036C315.107 315.188 314.843 315.35 314.585 315.52C313.116 316.493 313.624 318.773 315.365 319.042L315.404 319.048C315.307 320.019 315.141 320.981 314.897 321.928C317.223 330.928 312.202 334.207 305.034 334.354C304.876 334.435 304.722 334.516 304.563 334.593C305.29 336.64 305.87 338.74 306.3 340.867C306.685 342.748 306.953 344.648 307.103 346.557C307.29 348.965 307.274 351.385 307.071 353.789L307.083 353.704C307.598 351.056 309.034 348.583 311.12 346.869C314.227 344.315 318.616 343.374 321.967 341.321C323.581 340.333 325.648 341.61 325.366 343.482L325.353 343.572C324.854 343.775 324.367 344.011 323.896 344.274C323.627 344.427 323.363 344.588 323.105 344.759C321.636 345.731 322.144 348.012 323.885 348.281L323.925 348.287C323.953 348.291 323.977 348.295 324.006 348.299C323.15 350.333 321.957 352.222 320.464 353.85C319.01 361.707 312.765 362.453 306.085 360.165H306.081C305.35 363.348 304.283 366.459 302.912 369.423H291.592C291.552 369.297 291.515 369.168 291.479 369.042C292.526 369.107 293.58 369.046 294.611 368.855C293.771 367.823 292.931 366.784 292.091 365.752C292.071 365.732 292.055 365.712 292.039 365.691C291.613 365.164 291.183 364.64 290.757 364.112L290.756 364.111C290.73 362.491 290.924 360.875 291.308 359.308L291.309 359.308Z" fill="#F2F2F2"/>
<path d="M64.6302 355.573C62.3648 354.033 62.0376 350.698 63.969 348.755L55.2717 328.095L60.3896 324.282L70.5402 348.896C71.8881 350.41 72.084 352.701 70.8783 354.441C69.4653 356.48 66.6679 356.987 64.6302 355.573H64.6302Z" fill="#FFB6B6"/>
<path d="M58.2272 280.378H58.2272C54.5104 280.068 51.1607 282.62 50.4692 286.288L45.4045 313.155L61.1087 345.22L69.2748 341.448L59.2242 311.269L64.685 289.406C65.7736 285.048 62.7003 280.751 58.2272 280.378V280.378Z" fill="#FF9800"/>
<path d="M65.4896 361.468C64.97 361.468 64.5474 361.891 64.5474 362.412V363.04C64.5474 363.56 64.97 363.983 65.4896 363.983H87.4754C87.995 363.983 88.4177 363.56 88.4177 363.04V362.412C88.4177 361.891 87.995 361.468 87.4754 361.468H65.4896Z" fill="#E6E6E6"/>
<path d="M65.4896 368.384C64.97 368.384 64.5474 368.807 64.5474 369.328V369.956C64.5474 370.476 64.97 370.899 65.4896 370.899H87.4754C87.995 370.899 88.4177 370.476 88.4177 369.956V369.328C88.4177 368.807 87.995 368.384 87.4754 368.384H65.4896Z" fill="#E6E6E6"/>
<path d="M65.4896 375.3C64.97 375.3 64.5474 375.723 64.5474 376.243V376.872C64.5474 377.392 64.97 377.815 65.4896 377.815H87.4754C87.995 377.815 88.4177 377.392 88.4177 376.872V376.243C88.4177 375.723 87.995 375.3 87.4754 375.3H65.4896Z" fill="#E6E6E6"/>
</g>
<defs>
<clipPath id="clip0_10_1662">
<rect width="358" height="432" fill="white"/>
</clipPath>
</defs>
</svg>
