<svg width="190" height="53" viewBox="0 0 190 53" fill="none" xmlns="http://www.w3.org/2000/svg">
<path d="M48.6319 13.978H36.5007L35.1841 8.71121C34.6161 6.4392 32.3365 4.65933 29.9945 4.65933H23.0055C20.6635 4.65933 18.3839 6.4392 17.8158 8.71121L16.4993 13.978H15.1429V11.3571C15.1429 10.8747 14.7518 10.4835 14.2692 10.4835H7.28022C6.79763 10.4835 6.40659 10.8747 6.40659 11.3571V13.978H4.36813C1.95949 13.978 0 15.9376 0 18.3461V43.9725C0 46.3811 1.95949 48.3407 4.36813 48.3407H48.6319C51.0405 48.3407 53 46.3811 53 43.9725V18.3461C53 15.9376 51.0405 13.978 48.6319 13.978ZM8.15385 12.2308H13.3956V13.978H8.15385V12.2308ZM4.36813 15.7253H17.1813C17.5821 15.7253 17.9316 15.4525 18.0289 15.0635L19.511 9.13498C19.8807 7.6561 21.481 6.40658 23.0055 6.40658H29.9945C31.519 6.40658 33.1193 7.6561 33.489 9.13498L34.9711 15.0635C35.0684 15.4525 35.4179 15.7253 35.8187 15.7253H48.6319C50.077 15.7253 51.2527 16.9011 51.2527 18.3461V20.967H35.6244C33.2012 18.7954 30.0024 17.4725 26.5 17.4725C22.9976 17.4725 19.7989 18.7954 17.3756 20.967H1.74725V18.3461C1.74725 16.9011 2.92304 15.7253 4.36813 15.7253ZM26.5 43.0989C19.9165 43.0989 14.5604 37.7429 14.5604 31.1593C14.5604 24.5758 19.9165 19.2198 26.5 19.2198C33.0835 19.2198 38.4396 24.5758 38.4396 31.1593C38.4396 37.7429 33.0835 43.0989 26.5 43.0989ZM1.74725 22.7143H15.7362C14.5399 24.2357 13.6597 26.0162 13.1927 27.956H11.5686C9.80232 27.956 8.36526 29.393 8.36526 31.1593C8.36526 32.9257 9.80232 34.3626 11.5686 34.3626H13.1926C13.6596 36.3024 14.5398 38.083 15.7361 39.6044H1.74725V22.7143ZM12.8908 32.6154H11.5687C10.7658 32.6154 10.1126 31.9623 10.1126 31.1593C10.1126 30.3564 10.7658 29.7033 11.5687 29.7033H12.8908C12.8399 30.1818 12.8132 30.6675 12.8132 31.1593C12.8132 31.6511 12.8399 32.1369 12.8908 32.6154ZM48.6319 46.5934H4.36813C2.92304 46.5934 1.74725 45.4176 1.74725 43.9725V41.3516H17.3756C19.7988 43.5232 22.9976 44.8461 26.5 44.8461C30.0024 44.8461 33.2011 43.5232 35.6244 41.3516H41.6429C42.1255 41.3516 42.5165 40.9605 42.5165 40.478C42.5165 39.9955 42.1255 39.6044 41.6429 39.6044H37.2638C39.0941 37.2767 40.1868 34.3433 40.1868 31.1593C40.1868 27.9754 39.0941 25.042 37.2638 22.7143H51.2527V39.6044H45.1374C44.6548 39.6044 44.2637 39.9955 44.2637 40.478C44.2637 40.9605 44.6548 41.3516 45.1374 41.3516H51.2527V43.9725C51.2527 45.4176 50.077 46.5934 48.6319 46.5934Z" fill="#7685D8"/>
<path d="M20.7834 15.7253H32.2165C32.4856 15.7253 32.7395 15.6013 32.9051 15.3893C33.0707 15.1773 33.1293 14.9008 33.0641 14.6398L31.6081 8.81558C31.5109 8.42664 31.1614 8.15384 30.7606 8.15384H22.2394C21.8386 8.15384 21.4891 8.42664 21.3918 8.81558L19.9359 14.6398C19.8707 14.9007 19.9293 15.1772 20.0949 15.3893C20.2604 15.6013 20.5144 15.7253 20.7834 15.7253ZM22.9214 9.90109H30.0785L31.0976 13.978H21.9023L22.9214 9.90109Z" fill="#7685D8"/>
<path d="M26.5 22.1319C21.5223 22.1319 17.4725 26.1815 17.4725 31.1593C17.4725 36.1371 21.5223 40.1868 26.5 40.1868C31.4777 40.1868 35.5275 36.1371 35.5275 31.1593C35.5275 26.1815 31.4777 22.1319 26.5 22.1319ZM26.5 38.4396C22.4856 38.4396 19.2198 35.1737 19.2198 31.1593C19.2198 27.145 22.4856 23.8791 26.5 23.8791C30.5144 23.8791 33.7802 27.145 33.7802 31.1593C33.7802 35.1737 30.5144 38.4396 26.5 38.4396Z" fill="#7685D8"/>
<path d="M31.5937 29.0015C31.4058 28.5569 30.8928 28.3489 30.449 28.5366C30.0045 28.7244 29.7964 29.2368 29.9841 29.6813C30.5881 31.111 30.2713 32.7419 29.1769 33.8361C28.4633 34.5497 27.5127 34.9427 26.5001 34.9427C25.4875 34.9427 24.5369 34.5497 23.8233 33.8361C23.482 33.4949 22.929 33.4949 22.5878 33.8361C22.2466 34.1773 22.2466 34.7304 22.5878 35.0715C23.6315 36.1151 25.0209 36.69 26.5002 36.69C27.9795 36.69 29.3691 36.1151 30.4127 35.0715C32.0119 33.4722 32.4756 31.0896 31.5937 29.0015Z" fill="#7685D8"/>
<path d="M23.2054 28.7383C23.4289 28.7383 23.6526 28.6531 23.8232 28.4824C24.9173 27.3883 26.548 27.0714 27.9781 27.6753C28.4223 27.8629 28.9351 27.6549 29.1227 27.2104C29.3104 26.7659 29.1022 26.2534 28.6579 26.0657C26.5697 25.184 24.1872 25.6475 22.5877 27.247C22.2465 27.5882 22.2465 28.1414 22.5877 28.4826C22.7582 28.6531 22.9819 28.7383 23.2054 28.7383Z" fill="#7685D8"/>
<path d="M80.8745 27.36C80.8745 28.1067 80.6945 28.8067 80.3345 29.46C79.9878 30.1133 79.4345 30.64 78.6745 31.04C77.9278 31.44 76.9811 31.64 75.8345 31.64H73.4945V37H70.6945V23.04H75.8345C76.9145 23.04 77.8345 23.2267 78.5945 23.6C79.3545 23.9733 79.9211 24.4867 80.2945 25.14C80.6811 25.7933 80.8745 26.5333 80.8745 27.36ZM75.7145 29.38C76.4878 29.38 77.0611 29.2067 77.4345 28.86C77.8078 28.5 77.9945 28 77.9945 27.36C77.9945 26 77.2345 25.32 75.7145 25.32H73.4945V29.38H75.7145ZM94.4424 23.04V37H91.6424V31.06H85.6624V37H82.8624V23.04H85.6624V28.78H91.6424V23.04H94.4424ZM103.678 37.14C102.372 37.14 101.172 36.8333 100.078 36.22C98.985 35.6067 98.1184 34.76 97.4784 33.68C96.8384 32.5867 96.5184 31.3533 96.5184 29.98C96.5184 28.62 96.8384 27.4 97.4784 26.32C98.1184 25.2267 98.985 24.3733 100.078 23.76C101.172 23.1467 102.372 22.84 103.678 22.84C104.998 22.84 106.198 23.1467 107.278 23.76C108.372 24.3733 109.232 25.2267 109.858 26.32C110.498 27.4 110.818 28.62 110.818 29.98C110.818 31.3533 110.498 32.5867 109.858 33.68C109.232 34.76 108.372 35.6067 107.278 36.22C106.185 36.8333 104.985 37.14 103.678 37.14ZM103.678 34.64C104.518 34.64 105.258 34.4533 105.898 34.08C106.538 33.6933 107.038 33.1467 107.398 32.44C107.758 31.7333 107.938 30.9133 107.938 29.98C107.938 29.0467 107.758 28.2333 107.398 27.54C107.038 26.8333 106.538 26.2933 105.898 25.92C105.258 25.5467 104.518 25.36 103.678 25.36C102.838 25.36 102.092 25.5467 101.438 25.92C100.798 26.2933 100.298 26.8333 99.9384 27.54C99.5784 28.2333 99.3984 29.0467 99.3984 29.98C99.3984 30.9133 99.5784 31.7333 99.9384 32.44C100.298 33.1467 100.798 33.6933 101.438 34.08C102.092 34.4533 102.838 34.64 103.678 34.64ZM122.401 23.04V25.3H118.681V37H115.881V25.3H112.161V23.04H122.401ZM130.924 37.14C129.618 37.14 128.418 36.8333 127.324 36.22C126.231 35.6067 125.364 34.76 124.724 33.68C124.084 32.5867 123.764 31.3533 123.764 29.98C123.764 28.62 124.084 27.4 124.724 26.32C125.364 25.2267 126.231 24.3733 127.324 23.76C128.418 23.1467 129.618 22.84 130.924 22.84C132.244 22.84 133.444 23.1467 134.524 23.76C135.618 24.3733 136.478 25.2267 137.104 26.32C137.744 27.4 138.064 28.62 138.064 29.98C138.064 31.3533 137.744 32.5867 137.104 33.68C136.478 34.76 135.618 35.6067 134.524 36.22C133.431 36.8333 132.231 37.14 130.924 37.14ZM130.924 34.64C131.764 34.64 132.504 34.4533 133.144 34.08C133.784 33.6933 134.284 33.1467 134.644 32.44C135.004 31.7333 135.184 30.9133 135.184 29.98C135.184 29.0467 135.004 28.2333 134.644 27.54C134.284 26.8333 133.784 26.2933 133.144 25.92C132.504 25.5467 131.764 25.36 130.924 25.36C130.084 25.36 129.338 25.5467 128.684 25.92C128.044 26.2933 127.544 26.8333 127.184 27.54C126.824 28.2333 126.644 29.0467 126.644 29.98C126.644 30.9133 126.824 31.7333 127.184 32.44C127.544 33.1467 128.044 33.6933 128.684 34.08C129.338 34.4533 130.084 34.64 130.924 34.64ZM144.233 30C144.233 28.6267 144.54 27.4 145.153 26.32C145.78 25.2267 146.627 24.38 147.693 23.78C148.773 23.1667 149.98 22.86 151.313 22.86C152.873 22.86 154.24 23.26 155.413 24.06C156.587 24.86 157.407 25.9667 157.873 27.38H154.653C154.333 26.7133 153.88 26.2133 153.293 25.88C152.72 25.5467 152.053 25.38 151.293 25.38C150.48 25.38 149.753 25.5733 149.113 25.96C148.487 26.3333 147.993 26.8667 147.633 27.56C147.287 28.2533 147.113 29.0667 147.113 30C147.113 30.92 147.287 31.7333 147.633 32.44C147.993 33.1333 148.487 33.6733 149.113 34.06C149.753 34.4333 150.48 34.62 151.293 34.62C152.053 34.62 152.72 34.4533 153.293 34.12C153.88 33.7733 154.333 33.2667 154.653 32.6H157.873C157.407 34.0267 156.587 35.14 155.413 35.94C154.253 36.7267 152.887 37.12 151.313 37.12C149.98 37.12 148.773 36.82 147.693 36.22C146.627 35.6067 145.78 34.76 145.153 33.68C144.54 32.6 144.233 31.3733 144.233 30ZM167.465 37L164.385 31.56H163.065V37H160.265V23.04H165.505C166.585 23.04 167.505 23.2333 168.265 23.62C169.025 23.9933 169.591 24.5067 169.965 25.16C170.351 25.8 170.545 26.52 170.545 27.32C170.545 28.24 170.278 29.0733 169.745 29.82C169.211 30.5533 168.418 31.06 167.365 31.34L170.705 37H167.465ZM163.065 29.46H165.405C166.165 29.46 166.731 29.28 167.105 28.92C167.478 28.5467 167.665 28.0333 167.665 27.38C167.665 26.74 167.478 26.2467 167.105 25.9C166.731 25.54 166.165 25.36 165.405 25.36H163.065V29.46ZM188.297 23.04V37H185.497V27.92L181.757 37H179.637L175.877 27.92V37H173.077V23.04H176.257L180.697 33.42L185.137 23.04H188.297Z" fill="#535252"/>
</svg>
